<?xml version="1.0" encoding="UTF-8"?>
<svg id="Layer_1" data-name="Layer 1" xmlns="http://www.w3.org/2000/svg" viewBox="0 0 1080 235.62">
  <g>
    <path
      d="M87.61,128.54c-1.85.32-3.72.36-5.58.51-1.48.12-2.98-.02-4.46.15-.74.09-1.49-.09-2.22-.1-2-.03-3.97-.21-5.95-.43-2.27-.25-4.51-.69-6.72-1.26-3.97-1.03-7.75-2.54-11.34-4.55-3.89-2.17-7.37-4.87-10.56-7.95-1.01-.98-1.94-2.06-2.88-3.12-2.43-2.75-4.47-5.77-6.21-8.99-2.14-3.97-3.74-8.16-4.87-12.54-1.01-3.92-1.59-7.9-1.97-11.92-.2-2.15-.1-4.32-.29-6.47-.06-.74.06-1.48.1-2.23.09-1.51.03-3.02.14-4.53.11-1.48.2-2.97.36-4.45.23-2.19.56-4.38.97-6.55.61-3.27,1.41-6.48,2.5-9.62,1.06-3.07,2.31-6.06,3.89-8.91,1.2-2.17,2.48-4.29,3.99-6.25,1.8-2.34,3.73-4.57,5.91-6.58,1.38-1.27,2.8-2.49,4.3-3.61,3.06-2.28,6.38-4.11,9.93-5.52,5.63-2.23,11.51-3.16,17.53-3.31,1.1-.03,2.21.07,3.31.1,1.88.06,3.74.23,5.59.5,3.26.48,6.45,1.26,9.55,2.42,3.58,1.35,6.89,3.17,9.98,5.41,2.44,1.77,4.57,3.88,6.63,6.06.41.44.79.91,1.16,1.37,1.56,1.93,2.93,3.99,4.19,6.12,1.43,2.43,2.65,4.96,3.75,7.55.87,2.06,1.64,4.16,2.33,6.28.12.36.29.56.71.55,2.09-.02,4.18,0,6.28-.01.56,0,.61-.06.63-.63,0-.19,0-.38,0-.58,0-6.95,0-13.9,0-20.85,0-7.07,0-14.14,0-21.21,0-.9,0-.91-.93-.91-1.9,0-3.8,0-5.7,0-.82,0-.81,0-1.03.77-.56,1.9-1.31,3.71-2.57,5.28-1.4,1.75-4.13,2.88-6.45,1.99-2-.77-4.03-1.43-6.05-2.12-4.66-1.59-9.39-2.99-14.22-3.97-1.39-.28-2.78-.56-4.18-.78-2.04-.32-4.08-.58-6.13-.78-1.74-.17-3.49-.32-5.24-.36-3.38-.08-6.77-.06-10.15.23-1.67.14-3.35.28-5.01.49-3,.38-5.97.94-8.91,1.67-3.72.92-7.34,2.1-10.87,3.59-1.95.82-3.87,1.71-5.72,2.73-3.2,1.76-6.27,3.74-9.16,5.98-1.82,1.42-3.58,2.91-5.25,4.5-1.23,1.17-2.43,2.39-3.57,3.66-1.31,1.47-2.59,2.97-3.79,4.53-3.4,4.43-6.18,9.21-8.33,14.37-1.45,3.49-2.56,7.09-3.37,10.79-.57,2.6-.99,5.23-1.25,7.89-.2,2.1-.42,4.2-.4,6.32.02,2.16-.08,4.32.1,6.48.09,1.02.11,2.06.21,3.09.23,2.19.54,4.38.96,6.55.52,2.67,1.18,5.3,2.02,7.88.64,1.99,1.38,3.94,2.23,5.86.95,2.16,2.03,4.25,3.24,6.28,1.05,1.75,2.18,3.45,3.37,5.11,1.45,2.01,3.04,3.9,4.72,5.72,1.48,1.6,3.06,3.12,4.68,4.6,2.14,1.94,4.44,3.67,6.82,5.3,3.18,2.18,6.61,3.92,10.11,5.52,3.27,1.49,6.64,2.69,10.1,3.61,3.83,1.02,7.74,1.67,11.68,2.06,2.65.26,5.31.38,7.97.41.38,0,.77,0,1.15,0,5.39,0,10.77,0,16.16,0,.89,0,.89,0,.9-.86,0-.7.12-1.39.24-2.07.34-1.92.87-3.79,1.48-5.64.2-.61.08-.74-.55-.63Z"
      fill="#FFFFFF" />
    <path d="M130,79.6c-.22.16-.44.33-.67.49.22-.16.44-.33.67-.49Z" fill="#FFFFFF" />
    <path d="M101.22,111.25c.96-1.59,1.97-3.15,2.99-4.7-1.05,1.53-2.04,3.1-2.99,4.7Z" fill="#FFFFFF" />
    <path
      d="M264.14,54.3c-.59.05-1.19.16-1.78.15-1.52-.01-3.03.1-4.53.2-2.25.15-4.5.3-6.75.5-1.79.16-3.59.32-5.38.49-1.93.18-3.86.42-5.79.64-1.79.21-3.58.42-5.36.65-1.86.24-3.71.5-5.56.79-3.13.49-6.26.99-9.38,1.52-.76.13-1.7.3-2.7.49.9-.16,1.8-.32,2.7-.47,3.12-.53,6.25-1.03,9.38-1.52,1.85-.29,3.7-.54,5.56-.79,1.78-.24,3.57-.45,5.36-.65,1.93-.22,3.86-.46,5.79-.64,1.79-.17,3.58-.33,5.38-.49,2.25-.2,4.5-.36,6.75-.5,1.51-.1,3.02-.21,4.53-.2.59,0,1.19-.1,1.78-.15,0-.04,0-.07,0-.11,0,0,0,0,0,0,0,.03,0,.07,0,.1Z"
      fill="#FFFFFF" />
    <path d="M104.63,105.91s-.07.1-.1.14c-.11.17-.22.33-.33.5.11-.16.22-.32.33-.48.04-.05.06-.11.1-.16Z"
      fill="#FFFFFF" />
    <path d="M126.91,81.96c.8-.64,1.61-1.26,2.42-1.87-.14.1-.28.2-.42.31-.67.51-1.34,1.03-2.01,1.56Z" fill="#FFFFFF" />
    <path
      d="M92.46,129.85c1.26-3.71,2.8-7.31,4.53-10.84,1.06-2.16,2.21-4.27,3.41-6.35.27-.47.55-.94.83-1.41-.28.46-.56.93-.83,1.4-1.2,2.08-2.35,4.19-3.41,6.35-1.72,3.52-3.26,7.12-4.53,10.84-.74,2.19-1.41,4.39-1.76,6.68-.04.29-.07.51-.07.68,0-.17.03-.38.07-.66.36-2.29,1.02-4.5,1.76-6.68Z"
      fill="#FFFFFF" />
    <path d="M163.3,62.78c-.02-.06-.05-.13-.09-.22-.45-1.05-.89-2.1-1.33-3.16h0s1.42,3.37,1.42,3.37Z" fill="#FFFFFF" />
    <g>
      <path
        d="M262.88,54.01c-1.27-.09-2.54-.22-3.8-.34-2.29-.22-4.59-.34-6.89-.5-2.11-.14-4.22-.19-6.33-.29-2.23-.1-4.47-.08-6.7-.13-2.71-.07-5.43-.01-8.14.06-2.64.07-5.29.12-7.93.23-1.05.04-2.11.07-3.17.14-1.87.13-3.73.26-5.6.4-1.35.1-2.7.19-4.05.32-5.09.48-10.03,1.1-14.93,1.85-.02,0-.03,0-.05,0-1.08.16-2.16.33-3.23.51-.49.08-.97.16-1.46.25-1,.17-1.99.35-2.98.54-.14.03-.28.05-.42.08-.19.04-.37.07-.56.11-.36.07-.72.14-1.08.21-.29.06-.57.12-.86.18-.33.07-.65.13-.98.2-.38.08-.55-.04-.69-.35l.21.45,4.18,8.86.08.17c-.03-.07-.05-.13-.05-.18,7.1-2.27,16.22-4.34,24.24-6,1.02-.21,2.37-.48,3.74-.74.49-.09.98-.19,1.47-.28.99-.19,1.94-.36,2.7-.49,3.12-.53,6.25-1.03,9.38-1.52,1.85-.29,3.7-.54,5.56-.79,1.78-.24,3.57-.45,5.36-.65,1.93-.22,3.86-.46,5.79-.64,1.79-.17,3.58-.33,5.38-.49,2.25-.2,4.5-.36,6.75-.5,1.51-.1,3.02-.21,4.53-.2.59,0,1.19-.1,1.78-.15,0-.03,0-.07,0-.1,0,0,0,0,0-.01-.42-.06-.85-.14-1.27-.17Z"
        fill="#FFFFFF" />
      <path
        d="M163.42,63.06l-.12-.28c.05.14.07.23.04.3-4.9,1.57-9.73,3.37-14.33,5.46-.35.16-.69.32-1.04.48-.45.21-.91.41-1.35.62-4.77,2.31-9.35,4.93-13.73,7.91-.98.66-1.94,1.35-2.89,2.05-.22.16-.44.33-.67.49-.82.61-1.63,1.23-2.42,1.87-9.82,7.87-18.61,18.44-22.28,23.96-.03.05-.06.11-.1.16-.11.16-.22.32-.33.48-1.02,1.55-2.03,3.11-2.99,4.7-.28.47-.56.94-.83,1.41-1.2,2.08-2.35,4.19-3.41,6.35-1.72,3.52-3.26,7.12-4.53,10.84-.74,2.19-1.41,4.39-1.76,6.68-.04.28-.07.5-.07.66,0,.5.24.54,1.07.54,9.21,0,18.42,0,27.63,0,.14,0,.29,0,.43,0,.53-.02.6-.07.61-.57,0-.4,0-.81,0-1.21,0-.51,0-1.01,0-1.52,0-.53-.06-.59-.57-.61-.6-.02-1.2-.07-1.79-.14-1.8-.22-3.55-.64-5.16-1.49-2.39-1.27-3.72-3.18-3.59-5.99,0,0,0,0,0,0,.06-1.14.31-2.23.72-3.29,1.51-3.89,3.41-7.58,5.59-11.13,2.58-4.21,5.52-8.16,8.81-11.84,2.26-2.52,4.67-4.91,7.22-7.14,2.67-2.32,5.44-4.5,8.35-6.51,4.12-2.85,8.44-5.34,12.97-7.49,1.6-.76,3.23-1.48,4.87-2.15.14-.06.29-.12.44-.18.68-.27,1.35-.54,2.03-.79.15-.06.3-.11.45-.17.82-.3,1.64-.6,2.47-.88.13-.05.27-.09.4-.14,1.12-.38,2.26-.74,3.39-1.08.09-.03.16-.05.24-.07.4-.1.51-.05.69.34l-.2-.47-4.28-10.15Z"
        fill="#FFFFFF" />
      <path d="M183.02,57.44s0,.01.01.02l-.33-.69c.1.22.21.45.31.67Z" fill="#FFFFFF" />
      <path d="M187.5,66.94c.02.06.05.13.09.21.58,1.23-.09-.21-.09-.21Z" fill="#FFFFFF" />
    </g>
    <path
      d="M230.32,134.78c0-.63-.07-.7-.67-.8-1.41-.23-2.75-.69-4.04-1.28-3.44-1.59-6.31-3.92-8.78-6.77-1.9-2.19-3.49-4.58-4.8-7.17-1.01-1.99-1.94-4.03-2.88-6.05-1.16-2.48-2.33-4.96-3.5-7.44-2.1-4.46-4.21-8.91-6.32-13.36-1.21-2.56-2.42-5.13-3.63-7.69-1.82-3.84-3.64-7.69-5.47-11.53-.29-.62-.58-1.24-.88-1.85-.58-1.23-1.81-3.84-1.84-3.9l-.08-.17-4.18-8.86-.21-.45s0-.01-.01-.02c-.1-.22-.21-.45-.31-.67-.26-.56-.52-1.12-.79-1.68-1.09-2.3-2.2-4.6-3.29-6.9-1.85-3.91-3.68-7.83-5.53-11.74-1.04-2.2-2.09-4.38-3.13-6.58-1.85-3.91-3.68-7.83-5.53-11.74-1.05-2.22-2.11-4.43-3.16-6.64-1.3-2.76-2.59-5.53-3.87-8.3-.19-.41-.47-.55-.9-.54-.96.02-1.93.06-2.88,0-.7-.05-1.03.24-1.3.84-1.13,2.52-2.31,5.02-3.47,7.53-1.14,2.44-2.29,4.87-3.43,7.31-1.93,4.14-3.85,8.28-5.78,12.42-.77,1.66-1.56,3.31-2.32,4.96-1.4,3.03-2.8,6.07-4.2,9.1-1.05,2.27-2.12,4.53-3.17,6.8-1.75,3.77-3.49,7.55-5.24,11.32-.75,1.61-1.51,3.22-2.26,4.83-1.59,3.45-3.17,6.9-4.76,10.35-1.1,2.38-2.22,4.75-3.32,7.12-1.57,3.4-3.13,6.81-4.69,10.22-.91,1.99-1.81,3.98-2.74,5.96-.72,1.53-1.35,3.09-2.3,4.51,3.66-5.51,12.46-16.09,22.28-23.96-.13.1-.27.2-.4.31-.17.13-.35.25-.66.48.47-1.34,1.08-2.44,1.6-3.57,1.22-2.67,2.49-5.31,3.74-7.96,1.88-4,3.76-8.01,5.64-12.01,1.17-2.48,2.33-4.96,3.5-7.44,2.05-4.35,4.11-8.69,6.16-13.04,1.06-2.24,2.1-4.48,3.16-6.72.1-.21.16-.45.39-.65.37.66.62,1.36.9,2.04,1.64,3.9,3.28,7.8,4.92,11.69,2.01,4.77,4.02,9.54,6.04,14.31.44,1.05.89,2.1,1.33,3.16.04.08.06.15.09.22l.12.28,4.28,10.15s1.03,2.44,1.4,3.31c1.06,2.51,2.11,5.02,3.17,7.53,1.59,3.79,3.18,7.58,4.78,11.36,2.15,5.09,4.31,10.18,6.45,15.27,2.01,4.76,4.01,9.52,6,14.29.32.77.7,1.53.91,2.35.58,2.27-.33,3.96-1.96,4.97-.94.59-1.97.99-3.06,1.24-1.46.34-2.93.49-4.42.57-.53.03-.58.06-.59.59-.01.7,0,1.39,0,2.09q0,1.23,1.22,1.23c15.87,0,31.74,0,47.62,0,.19,0,.39,0,.58,0,.41.02.55-.18.54-.57-.01-.89,0-1.78,0-2.67Z"
      fill="#FFFFFF" />
  </g>
  <g>
    <path
      d="M39.35,192.88h-16.36c-.25,0-.49.11-.67.31l-1.01,1.12c-.18.2-.28.46-.28.74v37.3c0,.28.1.54.28.74l1.01,1.12c.18.2.42.31.67.31h16.36c13.47,0,22.17-8.17,22.17-20.81s-8.7-20.81-22.17-20.81ZM28.99,201.37h10.08c9.02,0,14.41,4.61,14.41,12.33s-5.39,12.33-14.41,12.33h-10.08v-24.66Z"
      fill="#FFFFFF" />
    <path
      d="M124.68,226.33c-.18-.2-.42-.31-.67-.31h-26.58v-8.41h21.82c.25,0,.49-.11.67-.31l1.01-1.12c.18-.2.28-.46.28-.74v-4.16c0-.28-.1-.54-.28-.74l-1.01-1.12c-.18-.2-.42-.31-.67-.31h-21.82v-7.76h26.1c.25,0,.49-.11.67-.31l1.01-1.12c.18-.2.28-.46.28-.74v-4.16c0-.28-.1-.54-.28-.74l-1.01-1.12c-.18-.2-.42-.31-.67-.31h-32.1c-.25,0-.49.11-.67.31l-1.01,1.12c-.18.2-.28.46-.28.74v37.3c0,.28.1.54.28.74l1.01,1.12c.18.2.42.31.67.31h32.58c.25,0,.49-.11.67-.31l1.01-1.12c.18-.2.28-.46.28-.74v-4.15c0-.28-.1-.54-.28-.74l-1.01-1.12Z"
      fill="#FFFFFF" />
    <path
      d="M196.7,193.38c-.17-.31-.48-.51-.81-.51h-4.47c-.17,0-.34.05-.49.15l-.89.59c-.15.1-.27.24-.35.4l-13.82,28.84-13.82-28.84c-.08-.17-.2-.31-.35-.4l-.89-.59c-.15-.1-.31-.15-.49-.15h-4.57c-.33,0-.64.19-.81.51l-.89,1.64c-.17.31-.18.71-.03,1.03l17.85,37.3c.08.17.2.31.35.41l.89.59c.15.1.32.15.49.15h4.43c.17,0,.34-.05.49-.15l.89-.59c.15-.1.27-.24.35-.41l17.85-37.3c.16-.32.15-.72-.03-1.03l-.89-1.64Z"
      fill="#FFFFFF" />
    <path
      d="M260.89,226.33c-.18-.2-.42-.31-.67-.31h-26.58v-8.41h21.81c.25,0,.49-.11.67-.31l1.01-1.12c.18-.2.28-.46.28-.74v-4.16c0-.28-.1-.54-.28-.74l-1.01-1.12c-.18-.2-.42-.31-.67-.31h-21.81v-7.76h26.1c.25,0,.49-.11.67-.31l1.01-1.12c.18-.2.28-.46.28-.74v-4.16c0-.28-.1-.54-.28-.74l-1.01-1.12c-.18-.2-.42-.31-.67-.31h-32.1c-.25,0-.49.11-.67.31l-1.01,1.12c-.18.2-.28.46-.28.74v37.3c0,.28.1.54.28.74l1.01,1.12c.18.2.42.31.67.31h32.58c.25,0,.49-.11.67-.31l1.01-1.12c.18-.2.28-.46.28-.74v-4.15c0-.28-.1-.54-.28-.74l-1.01-1.12Z"
      fill="#FFFFFF" />
    <path
      d="M322.6,226.33c-.18-.2-.42-.31-.67-.31h-23.84v-30.98c0-.28-.1-.54-.28-.74l-1.01-1.12c-.18-.2-.42-.31-.67-.31h-4.04c-.25,0-.49.11-.67.31l-1.01,1.12c-.18.2-.28.46-.28.74v37.3c0,.28.1.54.28.74l1.01,1.12c.18.2.42.31.67.31h29.84c.25,0,.49-.11.67-.31l1.01-1.12c.18-.2.28-.46.28-.74v-4.15c0-.28-.1-.54-.28-.74l-1.01-1.12Z"
      fill="#FFFFFF" />
    <path
      d="M374.3,191.76c-13.85,0-22.46,8.41-22.46,21.93s8.61,21.93,22.46,21.93,22.46-8.4,22.46-21.93-8.61-21.93-22.46-21.93ZM374.3,227.14c-9.16,0-14.41-4.9-14.41-13.45s5.25-13.45,14.41-13.45,14.41,4.9,14.41,13.45-5.25,13.45-14.41,13.45Z"
      fill="#FFFFFF" />
    <path
      d="M449.19,192.88h-22.52c-.25,0-.49.11-.67.31l-1.01,1.12c-.18.2-.28.46-.28.74v37.3c0,.28.1.54.28.74l1.01,1.12c.18.2.42.31.67.31h4.04c.25,0,.49-.11.67-.31l1.01-1.12c.18-.2.28-.46.28-.74v-11.47h16.53c9.02,0,14.85-5.49,14.85-13.99s-5.83-13.99-14.85-13.99ZM432.66,201.37h16.24c4.7,0,7.09,1.85,7.09,5.51s-2.38,5.51-7.09,5.51h-16.24v-11.02Z"
      fill="#FFFFFF" />
    <path
      d="M537.15,193.18c-.18-.2-.42-.31-.67-.31h-4.33c-.14,0-.28.03-.4.1l-.78.41c-.13.07-.24.16-.33.28l-15.38,20.77-15.38-20.77c-.09-.12-.2-.21-.32-.28l-.78-.41c-.13-.07-.27-.1-.41-.1h-4.43c-.25,0-.49.11-.67.31l-1.01,1.12c-.18.2-.28.46-.28.74v37.3c0,.28.1.54.28.74l1.01,1.12c.18.2.42.31.67.31h3.94c.25,0,.49-.11.67-.31l1.01-1.12c.18-.2.28-.46.28-.74v-24.99l13.67,18.32c.09.12.2.21.32.28l.78.41c.13.07.27.1.41.1.1,0,.21-.02.31-.06l1.07-.41c.17-.06.31-.17.42-.32l13.67-18.32v24.99c0,.28.1.54.28.74l1.01,1.12c.18.2.42.31.67.31h4.04c.25,0,.49-.11.67-.31l1.01-1.12c.18-.2.28-.46.28-.74v-37.3c0-.28-.1-.54-.28-.74l-1.01-1.12Z"
      fill="#FFFFFF" />
    <path
      d="M601.6,226.33c-.18-.2-.42-.31-.67-.31h-26.58v-8.41h21.82c.25,0,.49-.11.67-.31l1.01-1.12c.18-.2.28-.46.28-.74v-4.16c0-.28-.1-.54-.28-.74l-1.01-1.12c-.18-.2-.42-.31-.67-.31h-21.82v-7.76h26.1c.25,0,.49-.11.67-.31l1.01-1.12c.18-.2.28-.46.28-.74v-4.16c0-.28-.1-.54-.28-.74l-1.01-1.12c-.18-.2-.42-.31-.67-.31h-32.1c-.25,0-.49.11-.67.31l-1.01,1.12c-.18.2-.28.46-.28.74v37.3c0,.28.1.54.28.74l1.01,1.12c.18.2.42.31.67.31h32.58c.25,0,.49-.11.67-.31l1.01-1.12c.18-.2.28-.46.28-.74v-4.15c0-.28-.1-.54-.28-.74l-1.01-1.12Z"
      fill="#FFFFFF" />
    <path
      d="M669.27,193.18c-.18-.2-.42-.31-.67-.31h-3.95c-.25,0-.49.11-.67.31l-1.01,1.12c-.18.2-.28.46-.28.74v25.49l-24.45-27.24-1.08-.41h-4.38c-.25,0-.49.11-.67.31l-1.01,1.12c-.18.2-.28.46-.28.74v37.3c0,.28.1.54.28.74l1.01,1.12c.18.2.42.31.67.31h3.95c.25,0,.49-.11.67-.31l1.01-1.12c.18-.2.28-.46.28-.74v-26.35l25.26,28.1,1.08.41h3.56c.25,0,.49-.11.67-.31l1.01-1.12c.18-.2.28-.46.28-.74v-37.3c0-.28-.1-.54-.28-.74l-1.01-1.12Z"
      fill="#FFFFFF" />
    <path
      d="M737.99,194.3l-1.01-1.12c-.18-.2-.42-.31-.67-.31h-35.85c-.25,0-.49.11-.67.31l-1.01,1.12c-.18.2-.28.46-.28.74v4.05c0,.28.1.54.28.74l1.01,1.12c.18.2.42.31.67.31h13.92v31.08c0,.28.1.54.28.74l1.01,1.12c.18.2.42.31.67.31h4.04c.25,0,.49-.11.67-.31l1.01-1.12c.18-.2.28-.46.28-.74v-31.08h13.98c.25,0,.49-.11.67-.31l1.01-1.12c.18-.2.28-.46.28-.74v-4.05c0-.28-.1-.54-.28-.74Z"
      fill="#FFFFFF" />
    <path
      d="M833.83,211.09c-.18-.2-.42-.31-.67-.31h-19.34c-.25,0-.49.11-.67.31l-1.01,1.12c-.18.2-.28.46-.28.74v4.16c0,.28.1.54.28.74l1.01,1.12c.18.2.42.31.67.31h13.35v2.11c-2.61,4.75-8.34,5.76-12.72,5.76-6.75,0-14.79-2.33-14.79-13.45s7.89-13.45,14.5-13.45c5.46,0,9.41,1.81,12.09,5.52.15.21.37.35.6.38,0,0,1.46.23,1.51.23.19,0,.38-.07.54-.19l3.51-2.72c.22-.17.36-.43.4-.73l.19-1.64c.03-.29-.04-.59-.22-.81-3.01-3.9-8.68-8.54-18.62-8.54-13.91,0-22.55,8.41-22.55,21.93s8.7,21.93,22.7,21.93c9.34,0,17.23-4.34,20.59-11.33.07-.15.11-.31.11-.48l.12-10.86c0-.28-.1-.55-.28-.75l-1.01-1.12Z"
      fill="#FFFFFF" />
    <path
      d="M886.03,219.24c5.49-1.93,8.72-6.57,8.72-12.69,0-8.31-5.83-13.68-14.85-13.68h-22.62c-.25,0-.49.11-.67.31l-1.01,1.12c-.18.2-.28.46-.28.74v37.3c0,.28.1.54.28.74l1.01,1.12c.18.2.42.31.67.31h4.09c.25,0,.49-.11.67-.31l1.01-1.12c.18-.2.28-.46.28-.74v-12.11h13.18l10.58,13.53c.09.11.2.21.32.27l.77.39c.12.06.25.09.39.09h5.29c.37,0,.71-.24.86-.62l.76-1.86c.16-.38.1-.82-.15-1.12l-9.29-11.66ZM863.28,201.37h16.33c4.71,0,7.09,1.75,7.09,5.19s-2.38,5.19-7.09,5.19h-16.33v-10.38Z"
      fill="#FFFFFF" />
    <path
      d="M938.23,191.76c-13.85,0-22.46,8.41-22.46,21.93s8.61,21.93,22.46,21.93,22.46-8.4,22.46-21.93-8.61-21.93-22.46-21.93ZM938.23,227.14c-9.16,0-14.41-4.9-14.41-13.45s5.25-13.45,14.41-13.45,14.41,4.9,14.41,13.45-5.25,13.45-14.41,13.45Z"
      fill="#FFFFFF" />
    <path
      d="M1019.08,193.18c-.18-.2-.42-.31-.67-.31h-4.04c-.25,0-.49.11-.67.31l-1.01,1.12c-.18.2-.28.46-.28.74v19.45c0,8.16-4.18,12.65-11.76,12.65s-11.81-4.49-11.81-12.65v-19.45c0-.28-.1-.54-.28-.74l-1.01-1.12c-.18-.2-.42-.31-.67-.31h-4.04c-.25,0-.49.11-.67.31l-1.01,1.12c-.18.2-.28.46-.28.74v19.71c0,12.87,7.57,20.87,19.76,20.87s19.71-8,19.71-20.87v-19.71c0-.28-.1-.54-.28-.74l-1.01-1.12Z"
      fill="#FFFFFF" />
    <path
      d="M1065.06,192.88h-22.52c-.25,0-.49.11-.67.31l-1.01,1.12c-.18.2-.28.46-.28.74v37.3c0,.28.1.54.28.74l1.01,1.12c.18.2.42.31.67.31h4.04c.25,0,.49-.11.67-.31l1.01-1.12c.18-.2.28-.46.28-.74v-11.47h16.52c9.02,0,14.85-5.49,14.85-13.99s-5.83-13.99-14.85-13.99ZM1048.53,212.38v-11.02h16.23c4.71,0,7.1,1.85,7.1,5.51s-2.39,5.51-7.1,5.51h-16.23Z"
      fill="#FFFFFF" />
  </g>
  <path
    d="M338.98,42.75l12.69,6.34c-5.73,8.6-17.47,15.55-33.37,15.55-22.85,0-37.71-12.08-37.71-32.32S295.45,0,318.91,0c15.29,0,27.02,7.04,32.58,15.47l-12.77,6.34c-4.35-6.78-10.95-9.82-19.99-9.82-14.42,0-23.98,6.95-23.98,20.33s9.56,20.33,23.98,20.33c9.04,0,15.73-2.96,20.25-9.91Z"
    fill="#FFFFFF" />
  <path d="M442.11,51.09v11.64h-62.65V1.91h61.78v11.64h-47.96v12.51h40.06v11.64h-40.06v13.38h48.83Z" fill="#FFFFFF" />
  <path d="M540.72,1.91v60.82h-12.16l-43.62-43.97v43.97h-13.47V1.91h14.77l41.01,41.71V1.91h13.47Z" fill="#FFFFFF" />
  <path d="M634.64,13.9h-26.59v48.83h-13.9V13.9h-26.42V1.91h66.91v11.99Z" fill="#FFFFFF" />
  <path
    d="M728.82,1.91v32.15c0,18.25-12.08,30.59-34.15,30.59s-34.15-12.34-34.15-30.59V1.91h13.9v31.11c0,12.17,7.12,19.46,20.25,19.46s20.25-7.3,20.25-19.46V1.91h13.9Z"
    fill="#FFFFFF" />
  <path
    d="M814.66,62.74l-17.47-20.68h-21.98v20.68h-13.82V1.91h41.97c14.86,0,26.07,6.86,26.07,20.07,0,10.34-6.86,16.77-16.94,19.12l18.77,21.64h-16.6ZM802.58,30.59c7.3,0,12.69-1.74,12.69-8.52s-5.39-8.52-12.69-8.52h-27.46v17.03h27.46Z"
    fill="#FFFFFF" />
  <path d="M859.74,62.74V1.91h13.9v60.82h-13.9Z" fill="#FFFFFF" />
  <path
    d="M903.44,32.32c0-20.33,14.95-32.32,38.67-32.32s38.67,11.99,38.67,32.32-14.95,32.32-38.67,32.32-38.67-11.99-38.67-32.32ZM966.61,32.32c0-13.03-9.47-20.33-24.5-20.33s-24.5,7.3-24.5,20.33,9.38,20.33,24.5,20.33,24.5-7.3,24.5-20.33Z"
    fill="#FFFFFF" />
  <path d="M1079.91,1.91v60.82h-12.17l-43.62-43.97v43.97h-13.47V1.91h14.77l41.01,41.71V1.91h13.47Z" fill="#FFFFFF" />
  <path
    d="M334.64,126.61h-36.76l-6.52,12.86h-14.86l32.24-60.82h15.21l32.24,60.82h-15.03l-6.52-12.86ZM328.81,115.31l-12.6-24.76-12.6,24.76h25.2Z"
    fill="#FFFFFF" />
  <path
    d="M475.39,78.65v60.82h-13.9v-42.32l-26.68,32.58h-.69l-26.68-32.58v42.32h-13.47v-60.82h15.12l25.72,32.15,25.72-32.15h14.86Z"
    fill="#FFFFFF" />
  <path d="M583.9,127.83v11.64h-62.65v-60.82h61.78v11.64h-47.96v12.51h40.06v11.64h-40.06v13.38h48.83Z" fill="#FFFFFF" />
  <path
    d="M678.69,139.47l-17.47-20.68h-21.98v20.68h-13.82v-60.82h41.97c14.86,0,26.07,6.86,26.07,20.07,0,10.34-6.86,16.77-16.94,19.12l18.77,21.64h-16.6ZM666.61,107.32c7.3,0,12.69-1.74,12.69-8.52s-5.39-8.52-12.69-8.52h-27.46v17.03h27.46Z"
    fill="#FFFFFF" />
  <path d="M735.94,139.47v-60.82h13.9v60.82h-13.9Z" fill="#FFFFFF" />
  <path
    d="M850.19,119.48l12.69,6.34c-5.73,8.6-17.47,15.55-33.37,15.55-22.85,0-37.71-12.08-37.71-32.32s14.86-32.32,38.32-32.32c15.29,0,27.02,7.04,32.58,15.47l-12.77,6.34c-4.34-6.78-10.95-9.82-19.99-9.82-14.42,0-23.98,6.95-23.98,20.33s9.56,20.33,23.98,20.33c9.04,0,15.73-2.96,20.25-9.91Z"
    fill="#FFFFFF" />
  <path
    d="M951.41,126.61h-36.76l-6.52,12.86h-14.86l32.24-60.82h15.21l32.24,60.82h-15.03l-6.52-12.86ZM945.59,115.31l-12.6-24.76-12.6,24.76h25.2Z"
    fill="#FFFFFF" />
  <path d="M1080,78.65v60.82h-12.17l-43.62-43.97v43.97h-13.47v-60.82h14.77l41.01,41.71v-41.71h13.47Z" fill="#FFFFFF" />
</svg>