<?xml version="1.0" encoding="UTF-8"?>
<svg id="a" data-name="Layer 1" xmlns="http://www.w3.org/2000/svg" width="1080" height="1080" viewBox="0 0 1080 1080">
  <g>
    <path d="M822.448,419.482c3.097,3.739,7.885,5.771,12.661,6.225,3.505.402,4.778-1.55,4.945-4.797-.215-4.109.804-8.601-.922-12.488-1.343-3.076-4.63-4.558-7.833-4.818-2.956-.428-5.891-1.258-8.9-1.075-.174-.103-.38-.152-.592-.121-2.185.163-4.01,1.748-4.209,3.974-.324,2.076.383,4.113.995,6.077.779,2.582,2.055,5.007,3.855,7.023Z" fill="#c43d30"/>
    <path d="M946.785,602.602c-3.713-11.853-15.451-18.114-25.058-24.742-7.225-5.135-13.879-11.035-21.174-16.087-9.644-6.755-19.765-12.781-29.37-19.601-6.135-4.091-12.504-8.183-19.756-9.939-4.23-1.259-8.65-.486-12.911.237-10.232,1.822-20.307,4.49-30.342,7.175-5.452,1.609-10.944,3.12-16.414,4.705h0c-2.76.378-5.755,1.301-8.468.313-2.086-1.014-2.385-3.656-3.024-5.737,0,.003.001.005.002.008.006.024.012.049.016.074-.231-.65-.486-2.525-1.012-3.793-.43-1.698-.89-3.387-1.406-5.057-4.25-13.553-12.365-25.434-17.163-38.757-4.675-12.733-4.03-22.08,2.058-30.254,3.753-4.575,9.035-9.635,15.279-6.75,2.39,1.457,4.653,3.086,7.093,4.459,1.787,1.437,3.809,2.618,5.552,4.119,3.133,2.978,5.258,7.193,8.499,10.122.497.563,1.022,1.1,1.571,1.61,7.213,7.548,17.243,10.936,25.569,16.888,4.98,3.302,3.428,9.262,4.574,14.211.839,2.812,2.726,5.594,5.39,6.961,11.007,4.998,20.221-5.48,29.876-8.895,9.683-3.08,18.893-12.242,17.545-23.052-1.234-9.412-6.99-17.438-9.778-26.395-6.208-16.503-7.678-34.27-12.586-51.093-3.304-7.26-8.228-13.454-13.392-19.484-.564-.833-1.109-1.675-1.586-2.558-.208-.669-.384-1.35-.526-2.026-.844-4.001-.085-8.187.636-12.19.616-2.713,1.645-5.313,2.108-8.066.235-1.545,1.085-4.185-.906-5.004-2.042-.877-4.154-1.048-6.428-1.272-2.621-.074-7.158-.359-7.026-3.948.699-4.314,2.169-8.552,1.162-12.979-.693-3.975-3.399-3.999-6.788-3.565-2.861.131-5.646.872-8.387,1.737-3.069.504-6.115,1.178-9.122,2.012-2.6.353-5.207.567-7.822.114-2.326-.332-4.702-1.124-7.005-1.676-1.892-.372-3.795-.574-5.702-.587h-.026c-6.837-.297-14.049,1.828-20.099,4.411-10.894,5.203-21.861,11.014-34.15,11.764-5.032.416-10.146-.039-15.051-1.252-6.151-1.817-11.975-4.687-17.467-7.985-1.001-.677-2.333-2.154-3.43-.848-.946,1.434-.156,3.31.111,4.857.761,3.624,2.045,7.12,4.077,10.235.388.647.803,1.272,1.246,1.876,0,.003.003.01.006.013.306.555.65,1.091,1.033,1.603,4.353,4.995,2.956,7.433-1.05,11.99,0,.003-.004.006-.007.009-3.111,3.16-5.978,6.638-9.089,9.725-.877.873-1.8,1.708-2.777,2.475-.476.313-.958.615-1.446.905-7.51,4.581-16.054,7.374-24.718,8.851-1.183.259-2.922-.06-3.574,1.209-.601,1.898,2.344,2.904,3.662,3.799.817.435,1.658.897,2.521,1.327,1.274.775,2,1.39,2.194,2.165v.007c.011.04.02.08.024.12.003.003.003.006,0,.01.173,1.037-.558,2.376-2.165,4.726-2.573,3.144-4.95,5.992-7.578,8.219-.006.003-.014.009-.02.012-.881.592-1.874,1.193-2.974,1.208-1.015-.05-1.308-.977-1.355-1.878,2.257-10.911,3.078-23.251-.203-31.722-6.515-15.674-21.781-23.567-37.194-28.366-15.147-4.468-30.527-8.127-45.855-11.919-1.609-.353-3.223-.724-4.839-1.087-1.642-.503-3.294-.987-5-1.329-9.069-1.656-17.434-5.619-25.913-9.158-5.755-2.933-11.594-5.717-17.332-8.675-11.4-5.613-22.465-11.858-33.293-18.506-15.935-9.44-32.499-17.775-49.063-26.047-18.915-9.837-39.335-16.265-58.564-25.409-10.567-5.168-20.929-10.752-31.212-16.458-6.452-3.267-12.789-8.01-20.146-8.708-10.939.286-13.111,9.003-10.426,16.972.149,1.505-.395,3.188-1.832,3.823-.986.423-2.078.415-3.094.711-9.806.121-15.135,8.688-11.25,18.029,1.105,4.914-1.368,5.388-2.44,7.104-1.6,1.413-2.811,3.179-3.51,5.143-.286.668-.501,1.365-.917,1.977-1.184,1.873-3.474,1.084-5.263.697-7.799-2.767-15.561-5.641-23.256-8.694-7.469-2.244-15.738-7.827-23.569-4.363-8.061,4.969-6.445,14.088-2.154,21.512,0,.003,0,.007.002.007.317.997.517,2.029.447,3.089-.156,3.152-1.701,3.924-3.373,5.03-16.151,6.924-9.356,24.683,3.305,33.041,3.134,2.03,6.37,3.831,9.684,5.449,1.254.995,2.338,2.2,2.701,3.86.171,1.467-.389,2.733-.576,4.247-.039.21-.067.416-.086.627-1.166,4.67.024,9.977,3.511,13.696,4.51,5.252,10.146,9.2,16.261,12.369.048.028.1.057.155.079.003.004.007.004.01.004.084.043.165.086.249.126,3.303,1.925,3.461,5.237,1.974,8.388-2.921,4.508-3.113,10.996.101,15.611,3.379,5.771,9.509,9.116,15.211,12.221,5.686,3.092,11.565,5.686,17.579,7.917,5.183,3.116,3.867,5.32,2.594,8.262-.004.01-.008.019-.011.026-3.627,7.842.689,17.958,10.746,23.334,11.462,6.854,24.369,10.297,37.449,12.704.006.003.013.004.019.004,2.36.627,3.518,3.301,2.612,5.553-2.319,4.779-2.66,8.616-.066,13.125.465.991,1.036,1.93,1.686,2.777,9.074,10.454,25.65,12.725,40.758,13.894h.003c.329.104.655.213.969.359,1.699.648,2.984,2.229,2.456,4.12,0-.016.004-.029.005-.042-.43,1.777-.463,3.624-.073,5.374.506,3.956,2.976,7.893,6.861,10.183,7.765,4.858,17.04,6.352,26.029,7.021.34.005.683.009,1.023.008,1.878.164,3.763.156,5.603.724.335.113.638.282.907.485.002.007.009.01.012.017.821.775.9,2.095.291,3.053-2.009,2.867-5.986,2.765-9.088,3.806-.245.026-.487.045-.719.055-10.108,1.312-19.988,4.14-29.232,8.451-8.468,3.991-16.954,8.619-24.114,14.723-.537.287-1.096.534-1.732.75-1.572.473-3.204.792-4.857.694h-.006s-.003,0-.006,0c-2.333-.19-4.595-1.288-6.903-1.833-13.857-4.356-34.425-6.737-38.563-8.316-9.302-2.37-18.71-4.803-27.207-9.393-.701-.285-1.394-.671-2.078-1.11-.003-.003-.006-.004-.009-.007-.808-.56-1.608-1.129-2.402-1.705-.112-.084-.227-.168-.342-.252-.273-.193-.541-.393-.81-.593-1.43-1.055-2.845-2.133-4.251-3.221-2.142-1.393-3.882-3.429-6.146-4.593-2.478-.335-2.613,3.162-2.721,4.903-.029,1.669.203,3.31.643,4.894.125.992.321,1.975.619,2.929.542,1.281.667,2.884-.459,3.895-1.024.771-2.397.84-3.566,1.331h-.003c-13.248,2.464-21.279,14.671-33.516,20.631-1.203.562-2.436.997-3.692,1.339-2.403.467-4.829.844-7.284.962-2.058.122-4.105.344-6.149.593-.284.017-.569.038-.854.059-.13.028-.257.058-.384.096-3.319.414-6.633.869-9.969,1.071-7.366-.791.9,6.974,4.848,9.736,1.656,1.316,3.512,2.36,5.309,3.491.429.306.911.607,1.046,1.078.921,1.974-.293,4.312-2.229,5.119-.555.243-1.142.386-1.734.499-6.736-.04-13.484-.629-20.163-1.532-3.903-.654-7.811-1.368-11.674-2.261-3.928-.926-2.161,4.165-.75,5.81,5.268,6.718,12.348,11.936,19.583,16.385,2.133,1.215,4.346,2.241,6.623,3.099.006.013.015.024.021.037.215.072.43.144.645.213.029.014.061.022.091.034,1.307.469,2.632.886,3.973,1.254.013,0,.023.004.032.008,3.432,1.023,6.729,1.869,9.681,2.551,26.775,7.849,48.309-4.408,69.973-18.814,7.809-4.924,15.62-10.687,24.924-12.248,7.602-.978,15.345-.723,22.87-2.441.333-.072.663-.15.993-.228,5.387-.995,12.554-5.122,10.202,2.867-4.618,11.918-6.942,24.738-6.196,37.486.214,5.509.851,11.006,1.804,16.438.422,3.583,1.367,7.467,2.194,11.407-.013,3.264-.598,6.731-2.419,9.521-.007.01-.011.019-.018.029-.622.94-1.337,1.834-2.297,2.439-.027.019-.052.037-.079.053-.67.456-1.377.858-2.09,1.247-15.891,4.723-32.89,6.279-49.317,4.641-10.896-.847-21.622-6.335-32.604-3.206-17.435,6.149-30.85,20.024-43.881,32.605-11.467,11.814-24.312,21.98-38.127,30.903-9.801,7.34-23.64,11.855-29.948,22.766-6.2,11.467-6.948,39.53,9.357,42.645,3.449.618,6.632.6,9.497-.009.489-.002.971,0,1.458.185,2.552,1.216.164,4.308-.316,6.638-.108.279-.216.558-.317.838-3.596,12.25-2.417,28.281,8.391,36.575,2.647,2.154,5.314,3.148,7.904,3.26,9.776.423,18.402-11.712,20.357-21.197,1.925-7.423,1.003-15.409,4.265-22.527,8.974-12.027,23.442-18.36,34.784-27.882,9.199-6.558,17.679-14.031,26.023-21.625,8.16-7.49,17.943-16.455,29.854-13.032,17.599,3.309,35.435,5.061,53.322,5.637.583.032,1.162.067,1.745.102,21.265.457,42.812,2.208,63.788-2.259,8.242-1.895,16.357-4.594,23.747-8.771.589-.499,2.461-1.191,3.201-2.044,13.439-8.936,21.35-22.564,25.241-37.811.731-1.56,1.265-3.005,1.398-3.548,1.638-7.419,3.296-11.553,11.601-12.689.087-.029.183-.048.287-.067.003,0,.006-.003.013-.003.222-.024.448-.047.669-.07.014-.003.024-.002.037-.002.311-.02.635-.042.928-.092,12.045-1.136,24.269-.446,36.385.586,24.911,3.543,49.463,9.454,74.632,11.031,24.347,1.723,49.347-2.686,71.273-13.532,1.907-1.037,4.497-2.235,7.309-3.592,2.826-1.076,5.534-2.481,8.542-3.11.006-.003.017-.002.02-.002,3.237-.368,4.816,1.611,5.934,3.161,0,.003.003.003.003.003,4.946,8.836,13.225,15.172,26.062,17.48,12.011,1.16,24.133-.917,35.728-3.994,14.792-3.338,28.006-10.828,40.85-18.621,9.008-5.42,14.329-10.138,25.52-7.618,16.309,2.491,32.986,7.424,46.941,16.478,2.353,1.841,4.816,3.579,6.446,6.115,0,0,0,.003.003.003,0,.003.003.003.003.007.997,2.004.556,4.177.429,6.34-3,15.174,8.408,22.758,23.322,27.866,8.671,4.234,21.488-1.118,20.73-11.75-.465-4.345-2.1-8.456-3.239-12.648-2.07-8.629-2.855-17.87-7.953-25.415-7.512-12.186-20.88-18.223-33.375-24.016-12.73-6.38-25.577-12.514-38.372-18.765-7.947-3.424-14.862-9.615-23.538-11.036-9.58-1.655-19.132,1.203-28.633,2.215-6.801.761-13.673,1.012-20.505.584-1.042-.24-2.097-.461-3.106-.752-2.67-.771-3.26-3.624-.812-5.172,1.205-.878,2.947-1.141,4.405-1.562,3.783-1.095,7.561-2.224,11.276-3.529,6.536-1.855,13.11-3.581,19.469-5.997,10.177-3.894,19.929-8.87,30.26-12.361,8.201-2.692,15.815-6.941,23.8-.757,14.388,8.489,28.438,17.491,43.087,25.532,4.793,3.294,12.052,7.496,10.618,14.307-1.177,5.983-4.292,13.524.594,18.62,5.327,4.532,12.586,6.958,19.447,7.872,21.06.993,15.446-27.572,11.351-40.432ZM557.795,347.926c-.03.008-.06.014-.087.023.554-.138,1.116-.226,1.685-.267,11.383.974,22.754,5.028,33.62,7.828,16.527,5.666,43.26,9.839,52.733,25.371,5.49,7.411,3.966,17.066,2.831,25.603-.362,2.883-.832,5.751-1.45,8.586t-.004.006c-.869,1.633-2.339,2.342-4.072,2.551-.88-.173-1.759-.383-2.63-.639-2.552-.434-5.03-2.017-7.636-1.954-2.485,1.045-1.281,4.728-.669,6.682,1.04,2.669,2.73,5.05,4.853,6.944,2.089,3.061-.949,6.211-2.233,9.269-.888,1.364-1.817,2.704-2.922,3.904-2.229,2.604-5.115,4.694-8.445,5.834-.914.287-2.808.578-2.285,2.001,1.022,1.397,3.483,1.296,5.063,1.704.918.146,1.85.202,2.779.167.295.049.625.047.92.03.571.144,1.128.329,1.57.722.79,1.255.974,2.97.614,4.417-.007.095-.031.19-.062.288,0,0,0,.003-.004.007-.17.346-.359.684-.565,1.009,0,.003-.004.006-.004.006-.064.1-.127.199-.195.295-.007.01-.017.023-.024.035-.06.083-.12.17-.182.253-.646.734-1.41,1.368-2.201,1.965-2.487,1.322-5.098,2.311-7.75,3.181-1.256.263-2.518.446-3.801.337-1.945-.349-1.851-2.685-1.836-4.262.019-.144.039-.299.059-.46.86-5.835,2.712-12.103,5.165-19.065,4.169-11.459,8.027-23.863,6.493-36.176-1.238-6.715-5.212-12.69-10.456-16.984-9.225-7.509-20.323-12.33-31.492-16.177-4.994-2.074-12.398-3.992-19.397-6.652-1.151-.552-2.302-1.106-3.46-1.651-2.292-1.056-4.688-2.061-6.71-3.694-4.749-3.615-4.326-10.12,2.187-11.036ZM548.095,432.237c2.799-4.497,8.275-5.469,13.007-6.881.498-.147.996-.287,1.497-.424,5.423-.974,10.831-2.07,16.257-2.889,6.997-.734,13.925-2.016,20.863-3.208,1.943-.127,4.161-.484,6.226-.394,2.29.099,4.395.745,5.736,2.856,1.099,2.22.307,4.658-.295,6.9-.363,1.661-.668,3.226-1.648,4.682-1.523,3.305-7.836,4.177-12.784,4.921-4.638.459-9.265,1.055-13.861,1.837-9.601,1.413-19.454,4.671-29.188,3.29-1.926-.499-3.799-1.161-5.196-2.664-1.819-2.159-2.22-5.609-.614-8.025ZM538.111,415.333c-.285-.049-.573-.097-.861-.146-2.209-.525-4.48-1.293-6.234-2.719-1.194-1.494-2.048-3.406-1.828-5.371.663-3.269,4.086-5.046,7.072-5.831.548-.24,1.648-.183,2.361-.485,12.81-2.037,29.34-2.666,32.272-2.843,7.926-.476,15.877-.357,23.806-.737.309-.039.627-.075.962-.103,1.996-.059,3.99-.144,5.987-.213,1.191.008,2.425-.047,3.641.006,1.608.07,3.184.329,4.596,1.186,5.663,4.305,4.206,8.692-2.344,10.548-.449.155-.898.304-1.353.45-10.075,1.829-20.302,3.677-30.503,4.313-12.457,1.26-25.054,3.643-37.575,1.947ZM561.876,455.326c.017-.009.034-.022.047-.031.507-.351,1.043-.668,1.599-.941,0,0,0-.003.003-.003,1.524-.509,3.112-.876,4.653-1.195,2.504-.338,4.935-.764,7.428-1.306,4.99-.973,10.041-1.589,15.078-2.263,3.257-.272,6.516-.814,9.797-.672.188.008.375.019.563.031,4.56.966,5.017,7.347,1.901,10.173-4.562,3.064-10.561,2.927-15.863,3.767-6.219.833-12.469,1.55-18.718,2.089-.01,0-.013.003-.026.002-.626.042-1.271.064-1.921.072-2.293-.027-5.176,0-6.568-2.159-1.434-2.485-.453-6.097,2.027-7.564ZM560.933,480.634c5.068-4.832,12.83-4.403,19.355-5.372,5.35-.591,10.604-1.71,15.952-2.337,1.93-.204,3.874-.503,5.82-.524.166.047.332.1.477.179,3.007,1.371,4.131,5.233,3.719,8.354-.195,1.147-1.115,2.038-1.95,2.798-.038.045-.079.085-.124.126-2.747,1.234-6.028,1.528-8.872,2.485-.404.095-.807.19-1.214.284-7.615,1.499-15.275,2.769-23.058,2.677-.538.01-1.076.003-1.607-.017-2.026-.226-4.037-.604-6.025-1.181-3.235-1.236-5.612-4.656-2.473-7.472ZM586.586,499.46c.017-.006.034-.012.047-.018.01-.003.023-.006.034-.008h.003s.01-.003.013-.006c5.869-1.581,11.911-2.773,17.841-4.25,2.967-.363,5.976-1.013,8.973-.929,1.17.183,2.34.616,3.311,1.305,0,0,.003,0,.003.004,1.47,1.113,2.682,2.499,3.431,4.255.216.887-.102,1.659-.648,2.316-1.827,1.047-3.611,1.607-5.598,2.369l-.004.003c-.013.006-.027.015-.038.028-6.464,2.015-13.228,4.218-19.601,4.952-4.767.227-9.483-.255-13.722-2.676-4.322-3.478,2.983-6.542,5.956-7.344ZM543.136,370.742c3.538.47,7.035,1.271,10.52,2.389,3.175.853,6.347,1.717,9.502,2.632t.007.004c2.471.876,5.168,1.702,8.001,2.528.507.336,1.317.456,1.814.719,1.963.877,4.207,1.261,5.765,2.864,2.071,3.328-3.882,4.586-6.179,4.813-.99.136-1.982.264-2.984.31-.577.058-1.591-.092-2.14.254-6.079.579-12.158,1.135-18.162,1.743-12.204,1.067-27.122,3.69-39.155-.66,0,0-.003,0-.007-.004-1.352-.57-2.659-1.257-3.882-2.145-2.444-1.792-4.772-4.148-5.722-7.14-.969-3.016.691-6.589,3.906-7.268-.01.006-.023.012-.033.015,7.489-1.664,15.269-1.354,22.928-1.359,5.293-.022,10.564-.18,15.822.305ZM521.103,344.738c1.163.212,2.326.421,3.489.623,4.067.991,8.876,1.615,10.356,6.03.879,3.184-1.729,6.626-4.884,7.213-.007.003-.013.003-.02.006-.006,0-.013.003-.017.002-.01,0-.02.002-.03.005-3.349.651-6.767.678-10.171.633-3.502-.389-6.979-.969-10.386-1.882-2.88-.801-5.67-1.853-8.396-3.166-2.839-1.278-6.924-3.633-5.641-7.397,1.388-3.703,4.935-4.292,8.55-4.136,1.862.081,3.744.36,5.356.512,3.942.438,7.87.981,11.796,1.557ZM337.199,241.072c.9.039,1.879.302,2.647.626.423.157.831.326,1.239.515.942.579,1.883,1.128,2.828,1.611,7.859,4.77,15.741,9.511,23.875,13.801,20.543,11.574,44.151,15.575,65.276,25.758,23.663,11.729,46.141,25.971,69.123,39.106,1.433.907,2.8,1.89,3.549,3.418,1.004,1.984-.418,4.94-2.818,4.79-3.704-.005-7.306-1.732-10.747-3-3.132-1.238-6.349-2.404-9.509-3.683-2.95-1.408-5.907-2.804-8.857-4.202-17.647-9.003-36.491-16.376-54.438-24.867-18.773-8.771-37.081-18.455-54.934-28.972-6.985-4.439-18.787-10.679-26.96-17.932-.986-1.238-2.417-2.646-2.821-4.304-.34-2.131.993-2.733,2.548-2.666ZM317.401,263.185c.484-1.969,2.07-2.459,3.866-2.381,1.687.073,3.56.649,4.87.966,2.356.699,4.692,1.421,6.996,2.254,1.71.744,3.416,1.455,5.127,2.05,7.197,3.127,13.746,7.698,21.138,10.424,16.465,8.314,33.493,15.405,50.224,23.146,12.869,6.38,25.713,12.814,38.527,19.307,1.925,1.357,4.747,2.206,5.36,4.682.222.894-.222,1.783-1.173,1.92-.458.132-.927.224-1.401.279-9.298-1.019-18.578-2.157-27.636-4.589-1.899-.445-3.793-.897-5.685-1.358-.003-.003-.007-.003-.01-.004-.795-.388-1.684-.598-2.626-.883-7.373-2.775-14.527-6.121-21.658-9.466-15.153-7.294-30.264-14.965-44.97-23.197-6.741-4.19-20.605-9.461-28.893-16.514-1.483-1.896-2.378-4.246-2.057-6.638ZM316.284,282.979c.444-.199.893-.265,1.341-.246,1.347.058,2.698.896,3.953,1.323.434.181.869.364,1.303.558.657.382,1.32.76,1.978,1.135,5.172,2.687,10.387,5.295,15.62,7.869,1.188.771,2.43,1.425,3.629,2.174l.003.004c.061.055.121.114.181.173,1.507,1.425.406,1.919-.88,1.883-1.367-.379-2.771-.813-4.149-1.136-.066-.006-.135-.016-.207-.029-.283-.098-.569-.196-.856-.288-.003-.004-.006-.004-.01-.004-.257-.1-.513-.201-.761-.257-4.565-1.534-9.138-3.052-13.71-4.574-1.673-.693-3.329-1.415-4.963-2.175-2.386-.932-6.347-4.671-2.472-6.409ZM261.062,282.185c.626.027,1.28.105,1.935.212h.007s.003.004.006.004h.007c5.18,1.129,10.056,3.409,15.033,5.275,5.87,2.571,11.785,5.032,17.922,6.846,31.203,11.13,63.902,17.1,95.014,28.546,6.974,2.15,13.986,4.213,21.042,6.069.233.089.471.175.705.261.854.463,1.726.636,2.556.583,12.668,3.218,25.5,5.727,38.563,6.863,5.728.743,11.441,1.604,17.156,2.435,1.044.289,2.087.589,3.124.901,3.843,1.058,6.28,4.771,6.647,8.642.12,1.87-1.234,3.36-2.719,4.332-3.841,2.336-8.592,2.045-12.909,1.637-.849-.066-1.701-.133-2.552-.222-16.092-3.126-32.068-6.827-48.243-9.566-16.576-2.859-32.385-8.577-48.414-13.489-14.93-4.445-29.951-8.6-44.705-13.619-11.462-3.803-22.602-8.474-33.81-12.95-7.342-3.255-17.055-6.841-24.863-12.068-.525-.366-1.04-.755-1.544-1.17-1.474-1.328-3.193-2.647-3.976-4.618-1.318-4.021,1.007-5.037,4.018-4.907ZM256.416,326.116c-1.722-.943-3.393-1.982-5.002-3.177-4.058-3.269-8.539-10.174-2.908-14.188,2.673-1.518,5.392-2.022,8.12-1.904,7.101.307,14.287,4.81,21.061,6.549.062.016.124.035.186.051.904.32,1.808.63,2.713.936,19.701,6.477,39.672,12.058,59.363,18.544,21.908,7.266,43.211,16.624,65.704,21.974,13.359,3.285,27.053,4.788,40.544,7.381,10.395,2.229,20.543,3.351,30.893,4.238,2.843.44,5.775.817,7.482,3.311,1.345,1.88.634,4.349-1.782,4.719-4.214.878-8.579.299-12.849.27-.066-.003-.129.004-.192.018-3.943-.197-7.887-.384-11.826-.64-17.844-1.498-35.579-4.361-53.199-7.49-18.186-3.817-36.116-8.722-54.204-12.957-20.736-4.372-41.378-9.322-61.603-15.654-.202-.154-.42-.292-.656-.418-3.105-1.168-6.489-2.294-9.953-3.045-.908-.31-1.818-.623-2.726-.94-6.062-2.127-12.861-4.504-19.165-7.579ZM279.946,360.837c-3.378-1.813-8.103-4.915-6.873-9.457.6-3.503,4.509-3.941,7.494-3.967.786-.009,1.584.006,2.388.04,3.229.14,6.554.632,9.661,1.456,1.228.338,2.471.638,3.718.915,5.814,1.502,11.599,3.05,17.263,4.833,21.62,6.299,43.118,13.134,65.108,18.056,15.273,3.301,30.761,5.367,46.148,8.033,10.166,1.932,20.287,4.238,30.591,5.317,4.746.496,9.507.774,14.266,1.016,7.219.923,14.559,1.181,21.381,3.955,2.31,1.09,4.796,2.545,5.962,4.955,1.084,2.727-.722,5.02-3.214,5.612-2.752-.113-5.51-.206-8.263-.301-6.596-.226-13.188-.455-19.768-.897-17.994-.98-37.127-5.26-55.259-7.718-5.905-.856-11.814-1.693-17.716-2.545-.448-.079-.902-.142-1.354-.197-.099-.014-.194-.028-.289-.039-.443-.069-.885-.131-1.328-.196-.227-.039-.449-.082-.668-.134-3.507-.501-7.01-1.016-10.513-1.544-.075-.009-.151-.02-.226-.033-17.795-2.76-35.497-6.015-52.878-10.942-12.174-3.203-24.341-6.73-36.074-11.348-3.239-1.52-6.46-3.069-9.558-4.87ZM307.392,402.802c-.288-.131-.577-.259-.865-.384-4.296-1.866-8.733-3.54-12.591-6.252-2.211-1.693-4.488-3.763-5.014-6.634-.412-1.985.473-4.509,2.467-5.363,1.354-.605,2.816-.766,4.292-.702,1.516.066,3.045.369,4.484.669,1.121.25,2.246.48,3.372.714h.003c4.713,1.115,8.873,2.308,10.671,2.568,11.232,2.48,22.608,4.219,33.877,6.505,8.197,1.437,16.387,2.97,24.619,4.21,1.937.411,3.876.805,5.825,1.176,19.3,4.066,40.07,5.915,59.741,8.562,21.905,3.288,43.859,5.082,65.932,6.621.608.063,1.219.142,1.827.254,1.648.444,3.288.928,4.776,1.768,2.703,1.616,5.349,3.348,7.967,5.098,2.565,1.606,4.142,5.055,2.552,7.865-1.012,2.178-3.36,3.417-5.73,3.109-.126-.002-.238.013-.339.048-41.369-.59-82.682-6.233-123.78-10.575-17.635-2.142-33.787-6.475-51.378-10.741-7.671-2.009-20.842-4.598-32.709-8.515ZM360.899,449.517c-4.863-1.201-9.709-2.562-14.473-4.154-4.748-1.961-9.466-4.07-13.667-7.091-2.871-2.078-5.703-5-5.201-8.887.504-2.57,3.073-4.27,5.412-5.084,1.765-.349,3.557-.424,5.363-.345,3.028.131,6.084.689,9.09,1.086,5.637,1.184,11.279,2.3,16.888,3.447,22.493,3.366,44.884,7.563,67.48,10.21,19.169,2.311,38.467,1.99,57.731,2.153,9.676.283,19.361.388,29.041.427,2.308.291,4.66.403,6.971.638,4.051.139,7.799,2.017,10.885,4.633,3.177,2.788,5.518,5.669,1.617,9.243-1.391,1.099-3.025,1.853-4.78,2.207-.07.023-.143.04-.223.053-.523.027-1.045.054-1.568.081-11.374.033-22.745.026-34.112.585-19.119.14-38.2-1.358-57.322-1.465-26.487-1.551-53.181-1.415-79.132-7.736ZM405.151,485.29c-3.281-.462-7.394-.924-11.63-1.672-2.76-.684-5.485-1.485-8.002-2.815-2.253-1.342-5.769-3.606-4.976-6.688.427-1.622,1.515-3.13,3.141-3.713,2.295-.848,4.697-1.289,7.126-1.57.013,0,.03-.002.046-.005,5.981-.514,12.026-.685,17.974-1.134,4.094-.107,8.195-.124,12.295-.125,1.453-.01,2.865-.011,4.29.017,2.261.24,4.524.489,6.791.746,23.144,1.753,46.448.946,69.64.671,11.748-.221,23.47.919,35.203.813,1.886.197,3.84.13,5.586.895,3.797,2.039,3.227,6.154.248,8.692-1.835,1.529-4.096,2.048-6.408,2.476-.122-.002-.241.013-.355.047-24.326,1.988-48.699,2.417-73.098,2.741-2.405.064-4.813.155-7.22.259-.131-.029-.262-.051-.397-.07-2.355-.181-4.715.258-7.069.417-.225.013-.447.03-.672.047-14.177.724-28.352,1.51-42.513-.029ZM446.832,511.43c-1.218-.152-2.433-.313-3.644-.478-4.927-.731-10.109-.978-14.499-3.644-1.323-.915-2.025-2.623-2.066-4.196.368-1.341,1.471-2.567,2.686-3.258.238-.085.479-.164.719-.236,7.06-1.666,14.398-2.573,21.672-3.301,15.348.109,30.701-.188,46.025-.888,9.177-.847,18.356-1.744,27.553-2.36,5.201-.049,10.406-.035,15.609-.193.7-.003,1.396.004,2.091.034,2.037.088,4.031.386,5.903,1.295,1.811,1.171,3.896,2.043,5.438,3.569,1.279,1.416.954,3.587-1.022,4.082-1.379.425-2.717.622-4.167.85-3.458.425-6.912.903-10.369,1.328-9.845,1.327-19.799,1.574-29.649,2.864-12.23.92-40.261,5.323-62.281,4.533ZM193.524,754.019c-.059.07-.112.127-.153.175-1.665,1.711-2.602,4.37-5.011,5.187-.01.003-.017.006-.027.009-3.388,1.085-6.786-.868-9.866-2.153-1.088-.555-2.19-1.039-3.064-1.958-1.522-1.594.092-5.116,1.29-6.622.114-.13.232-.257.353-.381,1.309-1.191,2.822-2.195,4.528-2.97,15.081-8.67,30.375-17.39,43.194-29.311,7.494-7.348,14.222-15.431,21.481-23.01,9.575-9.654,20.583-19.56,34.011-23.076,1.185-.15,2.372-.185,3.554-.133,3.087.134,6.156.847,9.163,1.548,6.046,1.559,12.234,2.506,18.451,3.092.151.033.281.065.382.092,1.844.486,6.292.384,8.667,1.646.003,0,.003.003.003.003.156.129.319.245.466.351.337.374.494.942.341,1.427-.495,1.062-1.476,1.683-2.547,2.178-.148.05-.295.099-.44.156-2.447.696-5.02,1.057-7.462,1.793,0,0-.007.003-.011.003-.023.006-.046.011-.073.02-.181.055-.475.145-.84.261-.01.003-.017.006-.027.009-4.373,1.128-8.359,2.91-12.071,5.156-3.036,1.496-5.866,3.45-8.358,5.712-4.203,3.849-8.559,7.552-13.571,10.313-2.408,1.325-4.975,2.363-7.554,3.39-11.986,3.899-19.781,10.484-31.842,18.169-12.863,8.35-33.247,15.695-42.972,28.924ZM256.225,725.526c-.235.927-1.01,1.521-1.665,2.16-.454.429-.916.862-1.37,1.294-14.461,11.295-29.554,21.832-43.26,34.058-1.758,1.409-3.464,2.874-5.118,4.394-.004.003-.007.01-.014.013-.694.554-1.389,1.105-2.148,1.564-.668.41-1.63.438-2.248-.084-.2-.339-.275-.728-.288-1.135.989-4.176,2.252-8.264,5.533-11.301,11.728-11.205,26.368-18.626,40.052-27.103.923-.65,1.848-1.287,2.776-1.907,2.008-1.026,3.819-2.443,5.981-3.108.974-.238,2.293-.221,1.769,1.156ZM808.813,614.495c5.405-.4,10.928-1.099,16.229.421,5.298,2.061,9.839,5.75,14.933,8.277,14.36,7.695,29.263,14.344,44.125,20.998,13.326,5.739,30.178,12.525,33.682,28.446.115.498.213,1,.324,1.5-.006.836-.066,1.68-.344,2.463-1.138,2.719-4.823,3.347-8.142,3.766-.507.03-1.018.04-1.53.033-.701-.112-1.394-.267-2.06-.512-1.646-.518-3.16-1.629-3.628-3.396-.359-1.157-.326-2.552-.724-3.75-.413-5.03-3.594-8.39-10.636-12.877-9.074-5.268-18.71-9.63-28.668-12.935-10.182-3.408-20.58-6.304-31.204-7.951-7.648-1.321-15.316.731-21.599,5.193-11.989,6.859-22.97,15.604-35.848,20.804-17.855,6.626-43.202,14-57.006-3.667-8.161-11.873-7.377-32.072-4.642-49.28.193-.649.199-1.477.358-2.011.033-.236.064-.476.093-.712.241-1.838.433-3.678.671-5.52.461-4.087.908-8.177,1.632-12.229.63-5.489,2.211-10.907,1.897-16.466-.56-4.916-4.534-.576-5.628,1.661-1.635,3.379-3.747,6.496-5.022,10.042-1.561,4.726-2.434,9.623-3.184,14.542v.007c-2.241,11.047-3.202,22.368-3.065,33.63-.716,3.963-3.188,7.544-6.219,10.222,0,0,0,.003-.004.003-.377.475-1.792,1.375-3.162,2.359-.004.003-.007.006-.007.006-5.862,3.107-11.541,5.812-17.951,8.628-17.428,7.76-36.648,11.21-55.729,12.861-14.05.928-28.103-1.582-41.973-3.587-10.103-2.243-20.367-4.489-30.704-6.137-.173-.04-.344-.078-.517-.115-13.014-2.553-26.56-4.651-39.851-3.486-2.208-.109-4.418-.069-6.628.199-5.575.313-6.637-3.01-7.588-7.264-.165-1.843-.362-3.673-.601-5.489-.141-1.551-.308-3.096-.486-4.642-.085-1.255-.248-2.503-.436-3.742-1.011-5.768-2.9-11.563-6.863-16.003-.941-.991-1.959-2.187-3.349-2.495-4.065-.176-1.992,11.256-2.225,13.986.022,5.53.373,11.071.644,16.573-.052,4.167-.06,8.336-.178,12.503.003,31.139-19.347,62.438-52.246,65.953-4.608.313-9.228.492-13.851.543-1.196-.068-2.39-.156-3.587-.257-6.937-.267-13.874-.23-20.813-.464h-.019c-.915-.064-1.827-.129-2.742-.199-.395-.024-.769-.01-1.124.031-.092,0-.184-.008-.276-.012-22.773-.562-45.54-1.108-68.033-5.15-17.882-3.269-32.125,12.119-44.414,22.864-13.345,12.716-28.108,23.797-42.105,35.738-5.184,4.146-8.035,8.261-9.731,12.38-.213.341-.366.608-.446.77-1.454,2.548-2.457,5.667-5.388,6.894-3.225,1.603-6.898,2.118-10.484,1.682-1.829-.366-2.998-2.285-2.899-4.093.054-.803.28-1.513.581-2.22,7.829-14.79,21.215-25.481,33.538-36.786,12.253-11.443,26.253-20.539,39.131-31.246,11.145-9.101,20.066-20.909,32.557-28.288,20.771-10.477,53.726-2.787,69.503-23.674,15.13-24.232-13.404-54.294,6.25-98.572,8.596-20.603,32.532-28.408,52.562-33.283,5.211-.89,10.459-1.555,15.688-2.319.323,0,.649.005.976.019.916.04,1.842.146,2.777.361,3.154.876,6.141,2.398,9.267,3.411,3.061,1.192,6.306,1.95,9.532,2.479,9.437,1.385,18.837.96,28.216-.123,5.057-.138,9.886-1.735,14.817-2.713,9.939-2.122,19.752-4.833,29.084-8.9,5.276-1.762,4.378-5.518-.806-6.082-4.549-.217-9.14.905-13.632,1.516-6.444.992-12.988,1.475-19.328,3.063-.167.042-.331.088-.494.134-10.859,2.099-21.801,4.454-32.876,4.061-4.161-.418-8.693-1.416-10.406-4.477-.54-1.033-.554-2.457.398-3.261.359-.357,1.027-.536,1.614-.765.004-.003.011-.006.014-.006,4.232-1.22,8.609-1.995,13.339-2.955,16.366-3.428,32.976-5.384,49.445-8.23,3.523-.617,7.164-1.156,10.845-1.634.006-.003.017-.003.023-.002,4.493-.459,8.971-1.041,13.462-1.521.003,0,.01,0,.013-.003.01,0,.023-.002.033-.002,4.482.015,8.97-.104,13.372.852,2.845.688,5.682,2.032,8.33,3.318.01.004.022.011.033.015l.003.003c3.5,1.667,6.025,4.717,7.563,8.233.13.286.263.572.402.853,1.27,3.91,4.708,7.406,10.141,9.232,2.789,1.167,5.711,1.383,8.636,1.143,2.936.199,9.702-2.294,10.94-2.772,2.435-1.11,18.77-7.656,13.96-11.072-2.563-.494-5.395.027-8.032.012-3.182-.002-6.352.481-9.495,1.105-2.702.18-5.266.466-5.801.317.043.002.082.004.125.009-1.855-.229-5.148-.028-5.037-2.674.262-2.105,2.054-3.222,3.908-4.033,2.255-.777,4.711-1.166,6.923-1.939.608-.304,2.052-.502,2.941-.972,1.304-.383,2.608-.762,3.907-1.118,2.864-.88,5.751-1.679,8.674-2.338.21-.034.405-.052.576-.038,5.339-.862,5.622.54,8.153,4.146,1.047,2.135,2.15,4.249,3.139,6.414.595,1.062.81,2.788,2.19,3.089,3.899-.525,1.242-9.404.612-11.94-1.371-5.311-3.386-10.7-6.861-15.01-1.325-1.576-2.858-2.913-4.454-4.177-.003-.004-.003-.007-.007-.007-.712-.79-1.475-1.54-2.129-2.291-1.304-1.308-2.588-2.673-3.724-4.129-.006-.007-.013-.011-.016-.017-1.606-2.334-3.477-4.564-4.247-7.344-.748-3.848,2.245-3.452,4.794-2.691,1.301.518,2.606,1.044,3.914,1.549,1.088.631,2.174,1.236,3.099,2.138.007.007.013.014.019.017,2.588,2.287,3.585,5.876,5.21,8.844.567,1.015,1.202,1.983,1.891,2.911.383.67.798,1.325,1.245,1.969,3.082,3.834,7.095,6.982,11.737,8.743,2.626,1.18,8.607,1.349,7.745-2.916-.548-1.536-1.597-2.766-2.755-3.912-.569-.823-1.279-1.577-1.895-2.36-1.138-1.485-2.567-2.854-3.408-4.541-.94-2.021-.661-4.947,1.408-6.155.513-.331,1.216-.624,1.822-.819.083-.013.169-.032.253-.055,12.074-1.132,23.905-5.767,34.038-12.221,10.196-6.857,15.799-18.04,21.914-28.302,4.003-6.393,9.1-12.652,15.257-17.245,2.581-1.81,5.307-3.408,8.137-4.804,3.665-2.324,7.708-3.671,11.914-4.668.847-.257,1.729-.43,2.624-.593h.003c1.936-.262,3.858-.685,5.785-1.044.481-.125.985-.182,1.466-.31,1.663-.674.536-2.535-.619-3.077-4.069-2.104-12.721-1.937-6.755-8.528.218-.225.486-.464.767-.703,13.284-9.177,24.801-20.784,34.021-34.074,6.658-11.216,14.705-17.606,24.867-21.368h.003c1.195-.384,2.401-.728,3.639-.968,2.517-.337,5.184-.872,7.762-.473,1.541.231,3.133,1.608,3.307,3.226.087,1.103-.369,2.205-.705,3.237-.511,1.81-.978,3.751-.828,5.642-.162,3.594,1.07,7.107,2.238,10.459,2.394,7.693,7.25,13.346,12.947,19.61,16.82,18.596,17.233,20.419,21.498,45.239,1.24,10.624,3.959,20.895,7.557,30.888.005.182.014.36.02.542.145,1.901-.145,3.962-1.74,5.266-1.636,1.497-4.123,1.535-5.979,2.689-3.432,2.196-5.942,6.2-5.957,10.352.209,3.247,1.367,6.331,2.134,9.494.343,1.919.719,3.985-.27,5.801-.008.02-.018.042-.03.062-.396.844-.876,1.633-1.432,2.358-1.659,1.566-3.639,2.843-5.616,3.827-.477.188-.971.324-1.47.422-1.333-.015-2.705-.434-3.625-1.444-1.21-1.316-1.565-3.042-1.899-4.786-.019-.565-.067-1.125-.179-1.662-.846-6.543-5.749-11.565-11.066-15.02-2.789-1.761-5.612-3.445-8.357-5.224-.159-.152-.34-.309-.55-.479-.01-.007-.02-.014-.029-.024-.009-.007-.016-.014-.025-.021-.077-.059-.156-.122-.243-.189-2.552-2.141-3.836-6.715-.328-8.072.259-.038.518-.08.775-.125,1.675-.353,8.946-1.769,5.771-4.467-4.586-2.568-10.085-2.892-14.884-5.044-1.597-.647-3.239-1.14-4.889-1.611-.003-.007-.003-.016-.002-.023-.17-.04-.339-.077-.506-.117-.01-.004-.016-.004-.026-.008-1.386-.393-2.776-.78-4.142-1.239h-.003c-7.714-2.78-14.007-7.918-17.15-15.92-.96-3.61-1.682-7.2-1.762-11.016-.435-5.135.147-10.052.536-15.231.387-4.142.377-11.088-5.009-5.399-5.35,7.074-7.899,15.481-7.166,24.049.103,3.883-.128,7.999-2.946,10.957-1.396,1.683-3.253,2.778-4.793,4.352-.056.07-.123.153-.202.245t-.004.003c-3.007,2.739-5.634,5.629-7.311,7.689-16.924,21.127-.421,47.992,9.831,68.304,9.101,17.404,12.187,38.416,6.138,57.311-2.506,7.118-7.041,13.355-11.737,19.193-1.33,1.365-2.548,2.903-3.914,4.178-.014.016-.031.032-.048.047l-.004.003c-.038.038-.073.076-.11.114h-.003s0,.003,0,.003c-.003,0-.004.003-.007.006-.993,1.221-2.472,2.144-3.091,3.62-1.092,5.792,9.62,6.688,13.588,7.061.675.029,1.352.055,2.027.081,6.574.812,13.811,1.003,17.259,1.182,8.235.181,16.432-.514,24.635-1.123ZM906.248,588.867c-13.67-7.084-27.232-14.385-40.934-21.418-3.335-1.976-6.751-2.9-10.2-3.049-4.745-.202-9.549,1.059-14.247,3.058-16.412,5.433-32.259,12.571-49.141,16.486-.128.016-.253.045-.382.06-3.096.742-7.123.407-8.6-2.879-1.38-2.6-.891-5.699-.628-8.519.14-4.449.905-9.077,4.137-12.391-.01.013-.019.024-.029.036,1.688-2.024,4.002-3.385,6.302-4.61.474-.209.95-.411,1.429-.605,2.455-.69,4.91-1.379,7.355-2.106,14.657-4.222,29.317-9.107,44.506-10.966,9.538.809,17.441,7.588,25.564,12.115,5.532,3.53,11.21,6.813,16.795,10.25,9.807,6.191,18.466,13.897,27.324,21.334,6.062,5.168,13.094,9.429,17.96,15.843.988,1.849,1.792,3.792,2.469,5.787.796,2.931,1.663,6.793-1.717,8.062-6.845,2.165-6.84-.9-7.647-4.317-1.574-10.391-11.668-17.278-20.314-22.17Z" fill="#c43d30"/>
  </g>
  <path d="M1074.005,512.4l-.017-1.462c-.043-3.921-.087-7.975-.291-11.973l-.123-2.577c-.123-2.626-.249-5.341-.476-8.03-.661-7.75-1.371-14.118-2.238-20.04-1.197-8.22-2.898-16.34-4.557-23.891-1.698-7.718-3.601-15.225-5.068-20.906-2.173-8.387-4.516-16.605-6.731-24.301l-.467-1.622c-1.785-6.207-3.569-12.412-5.414-18.601-3.332-11.172-7.108-23.836-11.82-35.787-5.094-12.916-10.866-25.809-17.155-38.319-6.897-13.72-14.062-26.968-21.297-39.377-6.316-10.824-13.68-21.948-22.515-34.007-7.298-9.951-15.197-20.239-24.861-32.375-8.339-10.474-18.121-22.591-28.69-33.833-8.446-8.989-18.344-18.005-31.152-28.375-10.89-8.814-21.937-17.186-32.836-24.883-11.852-8.375-21.526-15.066-30.447-21.06-4.627-3.109-10.102-6.752-15.631-10.205-5.12-3.201-10.202-6.246-16.259-9.832-13.558-8.027-25.897-14.412-37.721-19.52-12.963-5.598-26.237-10.123-42.179-15.194-12.351-3.931-26.35-8.386-40.311-12.21-14.818-4.064-26.348-6.743-37.385-8.688-14.595-2.571-26.519-4.412-37.525-5.794-14.208-1.787-27.369-2.811-40.236-3.13-13.556-.333-26.883.328-38.134,1.022-13.892.858-26.418,1.733-38.296,2.675-5.705.453-12.172.967-18.517,1.71-6.697.785-13.241,1.693-19.45,2.699-16.242,2.633-31.884,6.123-46.49,10.374-12.561,3.656-25.708,7.913-40.191,13.015-10.632,3.744-22.966,8.179-34.804,13.438-13.103,5.821-24.715,11.642-35.498,17.796-11.844,6.757-23.379,14.143-34.08,21.116l-3.199,2.083c-9.721,6.329-19.773,12.873-29.479,19.613-18.059,12.542-34.96,26.44-50.235,41.307-7.486,7.284-15.23,15.349-25.109,26.149l-2.246,2.454c-6.622,7.232-13.47,14.71-19.866,22.4-8.366,10.055-15.539,19.55-21.928,29.027-7.109,10.546-14.151,22.199-21.527,35.626-7.142,12.995-14.186,26.25-20.937,39.395-3.213,6.258-6.856,13.351-10.101,20.488-3.106,6.835-5.733,12.92-8.028,18.601-6.244,15.44-11.068,29.529-14.749,43.069-1.821,6.697-3.554,13.56-5.15,20.399-1.402,6.015-2.861,12.487-4.042,19.064-2.404,13.442-4.289,26.846-6.347,41.837-1.929,14.082-3.922,28.643-5.028,43.087-1.242,16.248-1.559,29.398-.998,41.382.657,14.112,2.185,27.971,3.694,40.957l.412,3.552c1.608,13.888,3.27,28.247,5.882,42.283,2.522,13.567,5.918,27.117,10.092,40.275,3.568,11.247,7.412,22.249,10.363,30.578,2.99,8.431,6.559,18.38,10.365,28.253,2.357,6.114,5.209,13.341,8.482,20.591,2.166,4.801,4.593,9.857,7.869,16.393,5.853,11.686,10.88,21.109,15.821,29.654,2.536,4.387,5.067,8.627,7.524,12.606.129.273.272.542.433.806,5.378,8.82,10.587,16.707,15.926,24.111,9.583,13.291,20.454,25.827,30.967,37.951l5.281,6.099c8.809,10.187,17.918,20.722,27.443,30.612,3.777,3.922,7.623,7.724,10.551,10.598,3.732,3.671,6.887,6.732,10.155,9.739,8.794,8.091,16.783,14.811,24.423,20.545,9.49,7.125,19.646,14.074,31.045,21.243,12.106,7.615,24.745,14.86,36.601,21.554,12.655,7.148,27.412,15.369,42.392,22.453,11.075,5.24,23.069,10.747,35.741,15.513,11.895,4.478,24.996,8.422,40.051,12.056,16.427,3.967,32.665,7.131,44.977,9.445,7.005,1.315,15.279,2.834,23.53,4.119l1.244.194c7.473,1.168,15.199,2.377,22.892,3.09,14.616,1.355,27.84,2.059,40.429,2.152,2.286.017,4.568.026,6.855.026,30.948,0,56.165-1.714,79.359-5.391,13.632-2.163,27.933-4.871,42.507-8.052,13.316-2.904,27.55-6.137,41.418-10.103,13.106-3.748,26.28-8.513,39.156-14.164,12.115-5.317,24.672-11.422,39.519-19.214,16.275-8.542,29.714-15.962,42.292-23.35,6.515-3.824,13.224-8.047,21.111-13.289,5.428-3.607,11.733-7.818,17.877-12.151,6.705-4.734,12.113-8.826,17.019-12.877,4.694-3.872,9.482-8.014,14.231-12.311,4.803-4.348,9.87-9.248,15.488-14.982,5.925-6.05,10.829-11.156,15.434-16.067,5.126-5.465,11.179-11.955,17.208-18.651,5.36-5.946,9.813-10.917,14.261-16.223,3.859-4.603,8.891-10.7,13.589-17.037,4.207-5.677,7.867-10.691,11.189-15.331,8.08-11.294,15.451-22.592,21.908-33.581,4.426-7.535,8.179-14.464,11.473-21.181,2.839-5.785,5.884-12.127,9.31-19.391,6.311-13.387,12.908-27.775,18.407-42.278,2.655-7.008,5.44-14.482,7.735-22.054,2.123-6.996,4.079-13.875,5.816-20.446,4.173-15.797,7.129-27.984,9.585-39.516,2.461-11.56,5.485-26.856,7.037-42.657,1.503-15.282,2.23-30.621,2.793-44.919.331-8.404.553-16.148.677-23.673.13-7.624.072-15.269-.01-22.396ZM1058.198,562.896c-.304,5.417-.752,12.565-1.519,19.818-.666,6.323-1.507,13.113-2.571,20.756-1.61,11.524-3.402,23.897-5.587,36.267-1.775,9.444-3.607,17.921-5.599,25.913-1.878,7.526-4.206,15.538-7.315,25.181-3.804,11.335-8.114,24.182-12.868,36.657-2.734,7.177-5.035,12.973-7.243,18.24-2.533,6.045-5.237,11.887-7.287,16.253-3.174,6.44-6.243,12.321-9.382,17.982-3.322,5.993-6.38,11.374-9.351,16.449-6.234,10.655-12.152,20.372-18.083,29.691l-1.527,2.357c-5.224,8.06-11.303,16.67-18.068,25.59-8.005,10.548-14.27,18.507-20.283,25.769-5.68,6.624-10.528,12.117-15.725,17.394-4.939,5.014-10.126,10.021-15.387,14.856-11.071,9.889-22.349,19.198-32.886,27.783-10.112,8.237-21.919,17.767-34.041,26.608-6.766,4.75-14.815,10.323-23.223,15.635-5.343,3.374-9.489,5.918-13.443,8.245-3.793,2.234-7.672,4.354-11.594,6.485-10.302,5.334-18.272,9.137-25.839,12.33l-2.047.864c-3.564,1.505-7.252,3.062-10.899,4.485-3.342,1.303-6.693,2.576-10.026,3.828-13.384,4.88-27.096,9.732-40.752,14.424-8.12,2.785-14.913,4.997-21.38,6.96-6.702,2.037-13.442,3.747-21.449,5.676-6.229,1.38-12.039,2.565-17.763,3.625-5.606,1.037-11.576,1.977-18.789,2.962-13.044,1.786-26.361,3.081-37.625,4.109-11.869.899-21.796,1.371-31.238,1.488-8.817.109-18.098-.069-29.178-.558-10.909-.614-22.038-1.446-34.022-2.545-7.137-.657-13.641-1.365-19.884-2.166-6.821-.875-13.491-2.014-18.486-2.899-7.335-1.444-16.96-3.437-26.366-6.052-5.69-1.581-10.044-2.832-14.119-4.054-3.041-.915-6.127-1.921-9.112-2.892l-2.213-.72c-15.459-5.201-30.439-10.449-44.525-15.601-8.133-2.972-14.275-5.361-19.915-7.745-8.077-3.413-16.321-7.099-24.472-10.943-6.049-2.936-13.147-6.464-19.933-10.365-5.698-3.273-11.437-6.774-17.035-10.39-8.374-5.536-15.215-10.301-21.528-14.997-6.262-4.656-12.61-9.559-19.408-14.991-12.59-10.058-22.66-18.278-31.683-25.86l-3.055-2.588c-5.688-4.921-11.393-10.067-16.958-15.295-6.043-5.678-13.926-13.215-21.285-21.15-8.541-9.379-16.662-19.562-24.821-31.12-11.507-16.429-20.088-29.183-27.822-41.349-.126-.201-.262-.395-.404-.583-7.402-11.934-13.829-23.092-19.643-34.094-5.984-11.442-11.498-23.32-16.101-33.432-4.344-9.538-8.013-18.303-11.206-26.773-3.377-9.22-6.079-17.575-8.262-25.541-2.779-10.15-5.122-20.306-7.675-31.564-2.271-10.251-4.846-21.869-6.993-33.243l-.207-1.096c-1.025-5.436-2.086-11.057-2.906-16.588-.979-6.608-1.731-12.844-2.294-19.021-1.046-14.028-1.408-27.98-1.63-44.614-.2-15.106-.351-32.653.38-49.707.423-8.003.944-14.614,1.639-20.808.663-5.917,1.594-12.255,2.839-19.337,2.211-11.651,5.087-24.302,8.792-38.677,3.41-13.22,7.433-26.008,10.935-36.83l.136-.42c3.848-11.717,8.069-24.254,12.863-36.548,3.885-9.968,9.121-23.062,15.158-35.929,3.53-7.324,6.596-13.21,9.651-18.522,3.33-5.787,6.911-11.631,10.939-17.849,7.96-12.111,17.254-25.231,29.253-41.286,6.648-8.899,15.487-20.553,24.883-31.756,13.062-15.264,27.637-29.025,38.867-39.301,9.679-8.787,18.494-16.489,26.95-23.543,8.745-7.293,20.358-16.775,32.605-25.43,5.544-3.803,11.146-7.405,16.652-10.706,6.049-3.626,12.142-6.917,17.81-9.927,12.977-6.79,26.545-13.402,41.479-20.213,14.071-6.417,26.796-11.779,38.869-16.379,9.564-3.508,19.642-6.75,29.952-9.633,10.386-2.902,21.742-5.73,35.779-8.908l.575-.13c12.801-2.829,25.181-5.26,36.795-7.227,6.097-1.033,11.185-1.839,16.013-2.535,5.107-.734,10.256-1.278,14.573-1.709,9.677-.806,19.325-1.2,28.662-1.152,9.307.041,18.786.476,27.945.897,23.855,1.164,49.449,2.861,74.937,7.354,11.83,2.275,22.5,4.362,33.301,6.865,6.763,1.572,13.373,3.137,19.913,4.995,5.257,1.493,10.548,3.101,15.685,4.764,6.718,2.289,12.87,4.557,18.81,6.933,7.003,2.8,13.824,5.85,20.152,8.731,13.788,6.277,27.511,12.624,40.766,18.851,4.508,2.166,8.571,4.129,12.634,6.225,4.605,2.374,9.04,4.815,12.773,6.888,8.355,4.637,16.398,9.415,23.873,14.179,4.977,3.278,11.487,7.65,17.693,12.402,5.66,4.334,11.681,9.194,18.388,14.842,5.057,4.328,11.676,10.078,18.036,16.173,5.791,5.55,11.613,11.262,17.245,16.786l4.443,4.349c10.281,10.056,20.912,20.456,30.73,31.186,5.078,5.702,9.893,11.434,14.309,17.038,4.622,5.866,8.9,11.839,12.092,16.359,5.659,8.228,11.615,17.353,18.741,28.717,3.008,4.801,6.417,10.243,9.619,15.672,3.146,5.337,6.11,10.799,8.575,15.401,4.313,8.342,7.771,15.381,10.881,22.151,2.773,6.036,5.58,12.435,8.582,19.559,5.404,12.834,10.026,24.401,14.118,35.328,2.206,6.11,4.331,12.095,6.085,18.13l.592,2.029c.78,2.664,1.586,5.418,2.262,8.123.901,3.632,1.772,7.268,2.607,10.86,1.833,8.642,3.718,17.946,5.081,27.422,1.306,9.064,2.442,18.201,3.404,26.053.379,3.099.764,6.197,1.149,9.296,1.628,13.109,3.312,26.664,4.521,39.958.687,9.613,1.052,17.003,1.184,23.961.129,6.798.049,14.056-.243,22.133Z" fill="#c43d30"/>
</svg>